# xmcd CD database file
#
# Track frame offsets:
#	150
#	14585
#	31677
#	51787
#	62732
#	81270
#	93992
#	106542
#	128365
#	141575
#	153042
#	165755
#	179080
#	190860
#	204500
#	221965
#	235830
#	247212
#	262335
#	284165
#
# Disc length: 3928 seconds
#
# Revision: 0
# Processed by: cddbd v1.4PL0 Copyright (c) Steve Scherf et al.
# Submitted via: CDex 1.50Beta7
#
DISCID=220f5614
DTITLE=Sidney Bechet - Essential - Masters of Jazz
DYEAR=1998
DGENRE=Jazz
TTITLE0=When the Sun Sets Down
TTITLE1=China Boy
TTITLE2=Blue Horizon
TTITLE3=One O´Clock Jump
TTITLE4=Lazy River
TTITLE5=Stompy Jones
TTITLE6=Blues in the Air
TTITLE7=After You´ve Gone
TTITLE8=Shake it and Break it
TTITLE9=Strange Fruit
TTITLE10=Old Man Blues
TTITLE11=Blues in Third
TTITLE12=Limehouse Blues
TTITLE13=Egyptian Fantasy
TTITLE14=Quiet Please
TTITLE15=Indian Summer
TTITLE16=I Know that You Know
TTITLE17=Out of the Gallion
TTITLE18=V-Disc Blues (Bugle Call Rag)
TTITLE19=Swing Parade
EXTD=YEAR: 1998
EXTT0=
EXTT1=
EXTT2=
EXTT3=
EXTT4=
EXTT5=
EXTT6=
EXTT7=
EXTT8=
EXTT9=
EXTT10=
EXTT11=
EXTT12=
EXTT13=
EXTT14=
EXTT15=
EXTT16=
EXTT17=
EXTT18=
EXTT19=
PLAYORDER=
